<svg width="72" height="71" viewBox="0 0 72 71" fill="none" xmlns="http://www.w3.org/2000/svg">
<path d="M36.1934 35.5V35.5053L36.1855 35.5H36.1934Z" fill="#FF6666"/>
<path d="M36.1934 35.5V35.5053L36.1855 35.5H36.1934Z" fill="#FF6666"/>
<path d="M71.4706 35.502H36.1934L39.0339 32.6413L41.2128 30.4492L44.2944 30.9669L53.8364 32.5615L71.4706 35.502Z" fill="white"/>
<path d="M48.7102 23.7456L45.7197 27.9493L44.0318 30.3219L42.441 30.0557L48.7102 23.7485M53.3415 18.252L41.2148 30.4521L44.2965 30.9668L46.199 28.2955L53.3415 18.252Z" fill="white"/>
<path d="M28.3458 40.6781L29.9484 40.9444L23.6528 47.2781L26.6609 43.0477L28.3458 40.6781ZM28.0812 40.0332L26.1845 42.7046L19.0215 52.7777L31.1746 40.5509L28.0812 40.0362V40.0332Z" fill="white"/>
<path d="M31.6862 43.6502L29.031 45.5672L19.0215 52.7736L31.1716 40.5469L31.6862 43.6502Z" fill="white"/>
<path d="M36.1934 35.5V35.5053L36.1855 35.5H36.1934Z" fill="#FF6666"/>
<path d="M53.362 18.2246L53.3414 18.2512L41.2148 30.4484L40.6973 27.3451L43.3584 25.4281L53.362 18.2246Z" fill="white"/>
<path d="M41.599 41.7805L47.8858 48.1054L43.6956 45.0879L41.3344 43.3869L41.599 41.7805ZM41.205 40.5469L40.6934 43.6502L43.3545 45.5672L53.361 52.7736L41.205 40.5469Z" fill="white"/>
<path d="M30.9739 31.0882L32.9322 33.0584L34.77 34.9074H8.0644L18.6531 33.1442L28.1892 31.5556L30.9768 31.0882M31.1797 30.4551L28.0951 30.9698L18.559 32.5584L0.910156 35.499H36.1874L33.3468 32.6413L31.1767 30.4551H31.1797Z" fill="white"/>
<path d="M24.4653 22.8663L28.6908 25.9074L31.0491 27.6085L30.7815 29.2208L24.4653 22.8663ZM19.0225 18.2217L19.046 18.2483L31.1756 30.4544V30.4455L31.6872 27.3422L29.0319 25.4252L19.0195 18.2188L19.0225 18.2217Z" fill="white"/>
<path d="M31.1725 30.458L28.088 30.9728L26.1825 28.2955L19.043 18.252L31.1725 30.458Z" fill="white"/>
<path d="M36.1943 0V35.4999H36.1854L33.3449 32.6392L31.1719 30.456V30.4471L31.6865 27.3438L33.2655 17.75L36.1943 0Z" fill="white"/>
<path d="M36.1962 35.5059L33.3468 38.3666L31.1738 40.5499L28.0833 40.0351L18.5532 38.4465L0.910156 35.5H36.1874L36.1962 35.5059Z" fill="white"/>
<path d="M36.1934 35.5V35.5053L36.1855 35.5H36.1934Z" fill="#FF6666"/>
<path d="M41.2069 40.5498L40.6953 43.6531L39.1133 53.247L36.1934 70.9999V35.5059L39.0339 38.3666L41.2069 40.5498Z" fill="white"/>
<path d="M53.3601 52.7767L41.207 40.5499H41.2129L44.3004 40.0352L46.1971 42.7065L53.3601 52.7767Z" fill="white"/>
<path d="M36.7815 7.19465L38.534 17.8476L40.116 27.4414L40.5835 30.2459L38.6193 32.2221L36.7815 34.071V7.19465ZM36.1934 0V35.4999L39.0339 32.6422L41.2128 30.4501L40.6953 27.3468L39.1133 17.7529L36.1934 0Z" fill="white"/>
<path d="M35.6091 36.9328V63.821L33.8477 53.1503L32.2687 43.5565L31.8041 40.752L33.7624 38.7817L35.6091 36.9298M36.1972 35.5039L33.3478 38.3616L31.1777 40.5479L31.6894 43.6511L33.2684 53.245L36.1972 70.9949V35.5039Z" fill="white"/>
<path d="M64.3398 36.0926L53.7393 37.8646L44.2033 39.4533L41.4069 39.9207L39.4485 37.9504L37.6048 36.0956H64.3398M71.4706 35.5039H36.1934V35.5128L39.0339 38.3705L41.2069 40.5567H41.2157L44.3033 40.042L53.8393 38.4534L71.4735 35.5069L71.4706 35.5039Z" fill="white"/>
</svg>
